<!--?xml version="1.0" encoding="utf-8"?-->
<!-- Generator: Adobe Illustrator 15.1.0, SVG Export Plug-In . SVG Version: 6.00 Build 0)  -->

<svg version="1.1" id="_x32_" xmlns="http://www.w3.org/2000/svg" xmlns:xlink="http://www.w3.org/1999/xlink" x="0px" y="0px" width="512px" height="512px" viewBox="0 0 512 512" style="width: 256px; height: 256px; opacity: 1;" xml:space="preserve">
<style type="text/css">

	.st0{fill:#4B4B4B;}

</style>
<g>
	<path class="st0" d="M327.875,357.156h-143.75c-15.547,45.438-61.547,123.875-90,153.063c26.5,0,31.516,0,65.219,0
		c30.969-71.75,63.875-81.438,71.609,1.781h50.094c7.734-83.219,40.641-73.531,71.609-1.781c33.719,0,38.734,0,65.219,0
		C389.422,481.031,343.422,402.594,327.875,357.156z" style="fill: rgb(255, 255, 255);"></path>
	<path class="st0" d="M363.672,246.75h-65.969c-1.344-11.844-2.359-24.094-3.125-33.906h36.641v-95.531h-38.813
		c-0.141-14.594,0.094-27.031,0.094-36.438h-24.156V0h-24.688v80.875H219.5c0,9.406,0.234,21.844,0.094,36.438h-38.797v95.531
		h36.625c-0.766,9.813-1.781,22.063-3.125,33.906h-65.953v110.109h215.328V246.75z M211.766,148.281h88.484v33.594h-88.484V148.281z
		 M332.703,325.891H179.313v-48.172h153.391V325.891z" style="fill: rgb(255, 255, 255);"></path>
</g>
</svg>
